<svg width="269" height="371" viewBox="0 0 269 371" fill="none" xmlns="http://www.w3.org/2000/svg">
<rect width="269" height="371" fill="black"/>
<rect x="66" y="33" width="121" height="208" rx="9" fill="black" stroke="white" stroke-width="4"/>
<line x1="106" y1="215.5" x2="146" y2="215.5" stroke="white" stroke-width="5"/>
<path d="M25.2017 302V272.909H37.2188C39.3968 272.909 41.2765 273.302 42.858 274.088C44.4489 274.865 45.6752 275.982 46.5369 277.44C47.3987 278.889 47.8295 280.608 47.8295 282.597C47.8295 284.614 47.3892 286.328 46.5085 287.739C45.6278 289.14 44.3778 290.21 42.7585 290.949C41.1392 291.678 39.2216 292.043 37.0057 292.043H29.4062V286.503H35.6989C36.7595 286.503 37.6449 286.366 38.3551 286.091C39.0748 285.807 39.6193 285.381 39.9886 284.812C40.358 284.235 40.5426 283.496 40.5426 282.597C40.5426 281.697 40.358 280.954 39.9886 280.366C39.6193 279.77 39.0748 279.325 38.3551 279.031C37.6354 278.728 36.75 278.577 35.6989 278.577H32.233V302H25.2017ZM41.5795 288.705L48.8239 302H41.1534L34.0511 288.705H41.5795ZM66.5724 302H59.0156L68.831 272.909H78.1918L88.0071 302H80.4503L73.6179 280.239H73.3906L66.5724 302ZM65.5639 290.551H81.3594V295.892H65.5639V290.551ZM124.491 272.909V302H118.526L106.949 285.21H106.764V302H99.733V272.909H105.784L117.233 289.67H117.474V272.909H124.491ZM148.259 302H137.506V272.909H148.245C151.209 272.909 153.761 273.491 155.901 274.656C158.051 275.812 159.708 277.478 160.873 279.656C162.038 281.825 162.62 284.42 162.62 287.44C162.62 290.471 162.038 293.075 160.873 295.253C159.718 297.431 158.065 299.102 155.915 300.267C153.766 301.422 151.214 302 148.259 302ZM144.538 296.006H147.989C149.618 296.006 150.996 295.731 152.123 295.182C153.259 294.623 154.116 293.719 154.694 292.469C155.281 291.209 155.575 289.533 155.575 287.44C155.575 285.348 155.281 283.681 154.694 282.44C154.107 281.19 153.24 280.291 152.094 279.741C150.958 279.183 149.557 278.903 147.89 278.903H144.538V296.006ZM202.776 287.455C202.776 290.655 202.161 293.368 200.93 295.594C199.699 297.819 198.032 299.509 195.93 300.665C193.837 301.82 191.488 302.398 188.884 302.398C186.271 302.398 183.917 301.815 181.825 300.651C179.732 299.486 178.07 297.795 176.839 295.58C175.617 293.354 175.006 290.646 175.006 287.455C175.006 284.254 175.617 281.541 176.839 279.315C178.07 277.09 179.732 275.4 181.825 274.244C183.917 273.089 186.271 272.511 188.884 272.511C191.488 272.511 193.837 273.089 195.93 274.244C198.032 275.4 199.699 277.09 200.93 279.315C202.161 281.541 202.776 284.254 202.776 287.455ZM195.589 287.455C195.589 285.561 195.319 283.96 194.779 282.653C194.249 281.347 193.482 280.357 192.478 279.685C191.484 279.012 190.286 278.676 188.884 278.676C187.492 278.676 186.294 279.012 185.29 279.685C184.287 280.357 183.515 281.347 182.975 282.653C182.445 283.96 182.18 285.561 182.18 287.455C182.18 289.348 182.445 290.949 182.975 292.256C183.515 293.562 184.287 294.552 185.29 295.224C186.294 295.897 187.492 296.233 188.884 296.233C190.286 296.233 191.484 295.897 192.478 295.224C193.482 294.552 194.249 293.562 194.779 292.256C195.319 290.949 195.589 289.348 195.589 287.455ZM215.475 272.909H224.183L231.569 290.92H231.91L239.296 272.909H248.004V302H241.157V284.131H240.915L233.927 301.815H229.552L222.563 284.031H222.322V302H215.475V272.909Z" fill="white"/>
<path d="M111.159 344.273C109.932 344.273 108.875 343.983 107.989 343.403C107.102 342.824 106.42 342.026 105.943 341.009C105.466 339.991 105.227 338.83 105.227 337.523C105.227 336.193 105.472 335.02 105.96 334.003C106.455 332.98 107.142 332.182 108.023 331.608C108.909 331.028 109.943 330.739 111.125 330.739C112.045 330.739 112.875 330.909 113.614 331.25C114.352 331.591 114.957 332.068 115.429 332.682C115.901 333.295 116.193 334.011 116.307 334.83H114.295C114.142 334.233 113.801 333.705 113.273 333.244C112.75 332.778 112.045 332.545 111.159 332.545C110.375 332.545 109.688 332.75 109.097 333.159C108.511 333.562 108.054 334.134 107.724 334.872C107.401 335.605 107.239 336.466 107.239 337.455C107.239 338.466 107.398 339.347 107.716 340.097C108.04 340.847 108.494 341.429 109.08 341.844C109.67 342.259 110.364 342.466 111.159 342.466C111.682 342.466 112.156 342.375 112.582 342.193C113.009 342.011 113.369 341.75 113.665 341.409C113.96 341.068 114.17 340.659 114.295 340.182H116.307C116.193 340.955 115.912 341.651 115.463 342.27C115.02 342.884 114.432 343.372 113.699 343.736C112.972 344.094 112.125 344.273 111.159 344.273ZM121.259 336.125V344H119.247V326.545H121.259V332.955H121.429C121.736 332.278 122.196 331.741 122.81 331.344C123.429 330.94 124.253 330.739 125.281 330.739C126.173 330.739 126.955 330.918 127.625 331.276C128.295 331.628 128.815 332.17 129.185 332.903C129.56 333.631 129.747 334.557 129.747 335.682V344H127.736V335.818C127.736 334.778 127.466 333.974 126.926 333.406C126.392 332.832 125.651 332.545 124.702 332.545C124.043 332.545 123.452 332.685 122.929 332.963C122.412 333.241 122.003 333.648 121.702 334.182C121.406 334.716 121.259 335.364 121.259 336.125ZM133.427 344V330.909H135.438V344H133.427ZM134.45 328.727C134.058 328.727 133.719 328.594 133.435 328.327C133.157 328.06 133.018 327.739 133.018 327.364C133.018 326.989 133.157 326.668 133.435 326.401C133.719 326.134 134.058 326 134.45 326C134.842 326 135.177 326.134 135.455 326.401C135.739 326.668 135.881 326.989 135.881 327.364C135.881 327.739 135.739 328.06 135.455 328.327C135.177 328.594 134.842 328.727 134.45 328.727ZM141.134 326.545V344H139.122V326.545H141.134ZM146.829 326.545V344H144.817V326.545H146.829Z" fill="white"/>
</svg>
